<svg width="200" viewBox="0 0 1068 1911" xmlns="http://www.w3.org/2000/svg" xmlns:xlink="http://www.w3.org/1999/xlink">
    <g id="g1">
        <g id="g2">
            <path id="path1" fill="#878787" fill-rule="evenodd" stroke="none" d="M 561.368774 318.338989 C 315.590942 318.427612 100.480713 318.275024 83.346069 318 C 52.192139 317.5 52.192139 317.5 47.846069 314.351929 C 45.455688 312.620483 42.686279 310.115601 41.691711 308.7854 C 40.697144 307.4552 39.405396 303.471802 38.821106 299.933472 C 38.111023 295.63269 37.905457 269.963135 38.201111 222.5 C 38.63855 152.275024 38.668274 151.41272 40.922241 143.5 C 42.175598 139.099976 43.598694 133.474976 44.084717 131 C 44.57074 128.525024 45.839722 124.474976 46.904663 122 C 47.969604 119.525024 49.483398 115.474976 50.268799 113 C 51.054077 110.525024 54.295044 103.550049 57.470947 97.5 C 60.646729 91.449951 66.852905 81.398926 71.262451 75.164307 C 76.032837 68.419434 83.779053 59.359741 90.389771 52.793701 C 96.500366 46.724487 103.974976 39.909424 107 37.649292 C 110.025024 35.38916 114.974976 31.892334 118 29.87854 C 121.025024 27.864868 127.295654 24.127686 131.934692 21.57373 C 136.573853 19.019775 143.098877 15.787598 146.434692 14.390869 C 149.77063 12.994263 154.525024 11.272095 157 10.563843 C 159.474976 9.855591 163.286133 8.520752 165.469116 7.597534 C 167.652222 6.674316 172.777222 5.454468 176.858154 4.886963 C 180.939087 4.319336 185.89624 2.987549 187.874146 1.92749 C 191.405151 0.034912 197.666016 0 533 0 C 868.333984 0 874.594849 0.034912 878.125732 1.92749 C 880.10376 2.987549 885.178223 4.335571 889.402344 4.923096 C 893.626465 5.51062 898.516113 6.732666 900.267944 7.63855 C 902.019897 8.544556 905.713867 9.853882 908.476685 10.548218 C 911.239502 11.242554 916.038818 12.889648 919.141968 14.208374 C 922.245117 15.527222 927.420044 18.08313 930.641968 19.888306 C 933.863892 21.693481 938.539063 24.369629 941.03125 25.835205 C 943.52356 27.300903 948.057861 30.179321 951.107422 32.231689 C 954.156982 34.28418 959.992798 38.84729 964.075928 42.37207 C 968.15918 45.896729 974.92981 52.317383 979.121826 56.640259 C 983.313721 60.963135 989.388672 68.054565 992.621826 72.39917 C 995.854736 76.743652 999.727051 82.368652 1001.226685 84.89917 C 1002.726318 87.429565 1006.287231 94.224976 1009.139771 100 C 1011.99231 105.775024 1015.421143 113.425049 1016.759277 117 C 1018.097656 120.574951 1019.873291 126.199951 1020.7052 129.5 C 1021.537109 132.800049 1023.123779 138.650024 1024.230957 142.5 C 1025.814209 148.004517 1026.454346 154.627319 1027.227295 173.5 C 1027.768066 186.699951 1028.050537 221.349976 1027.855225 250.5 C 1027.531982 298.717896 1027.341797 303.789307 1025.746704 306.706665 C 1024.782471 308.470459 1021.919434 311.496948 1019.384766 313.432373 C 1016.849976 315.367798 1013.304932 317.227417 1011.506836 317.564697 C 1009.70874 317.901978 807.146606 318.250488 561.368774 318.338989 Z M 532.826172 277 C 950.633057 277 983.475342 276.879883 985.171265 275.344971 C 986.898926 273.781494 986.995972 270.892944 986.927002 223.094971 C 986.886841 195.267822 986.491699 170.25 986.048828 167.5 C 985.605957 164.75 984.474121 158 983.533569 152.5 C 982.593018 147 980.694214 139.349976 979.313965 135.5 C 977.933838 131.650024 975.661743 126.025024 974.264893 123 C 972.868042 119.974976 970.812744 115.699951 969.69751 113.5 C 968.582397 111.300049 966.181274 107.25 964.361816 104.5 C 962.542358 101.75 959.354126 97.293579 957.276855 94.596924 C 955.199585 91.900146 951.288574 87.256104 948.585571 84.276733 C 945.882568 81.297363 940.482666 76.273438 936.585571 73.112549 C 932.688477 69.951538 926.99292 65.717651 923.928711 63.703979 C 920.864502 61.690308 914.114502 57.928223 908.928711 55.34375 C 903.74292 52.759277 897.25 50.096191 894.5 49.425781 C 891.75 48.755371 887.912842 47.52124 885.973145 46.683228 C 884.033203 45.845215 877.958252 44.561157 872.473145 43.829834 C 864.346924 42.746338 801.478394 42.5 533 42.5 C 264.521606 42.5 201.653076 42.746338 193.526855 43.829834 C 188.041748 44.561157 181.966675 45.845215 180.026855 46.683228 C 178.087158 47.52124 174.25 48.755371 171.5 49.425781 C 168.75 50.096191 162.305664 52.735107 157.179321 55.290039 C 152.052856 57.844971 145.839233 61.1875 143.371094 62.717773 C 140.903076 64.248047 136.547363 67.260376 133.691895 69.411865 C 130.836304 71.563354 124.665039 77.188354 119.977783 81.911865 C 115.290527 86.635376 108.990479 93.826294 105.977783 97.891846 C 102.964966 101.957397 99.502808 106.907349 98.283936 108.891846 C 97.065063 110.876343 95.565918 113.625 94.952393 115 C 94.338989 116.375 92.751709 119.75 91.425171 122.5 C 90.098755 125.25 88.066162 129.974976 86.908447 133 C 85.75061 136.025024 83.499512 144.800049 81.905762 152.5 C 79.008179 166.5 79.008179 166.5 79.00415 219.921265 C 79.000366 268.230591 79.158325 273.517456 80.655029 275.171265 C 82.253662 276.937744 97.643433 277 532.826172 277 Z"/>
            <path id="path2" fill="#878787" fill-rule="evenodd" stroke="none" d="M 39.5 1671.5 C 40.429077 1612.966431 40.739136 1608.063599 42.186462 1605.422485 C 43.114014 1603.72998 46.025879 1600.579956 48.657349 1598.422485 C 53.441772 1594.5 53.441772 1594.5 88.970947 1593.892578 C 108.511963 1593.558594 170.625 1593.665283 227 1594.129761 C 283.375 1594.594238 437.949951 1594.989624 570.5 1595.008423 C 703.050049 1595.027222 839.625 1594.600708 874 1594.060791 C 908.375 1593.520752 954.062866 1593.39856 975.528564 1593.789429 C 1014.557007 1594.5 1014.557007 1594.5 1019.432617 1598.496826 C 1022.114258 1600.694946 1025.023315 1604.069946 1025.897217 1605.996826 C 1027.199219 1608.867432 1027.577637 1615.096924 1027.993042 1640.5 L 1028.5 1671.5 L 1040 1672.053589 C 1047.755127 1672.427002 1052.476929 1673.131592 1054.5 1674.217651 C 1056.150024 1675.103271 1058.895386 1677.204468 1060.60083 1678.886719 C 1062.306274 1680.569092 1064.668701 1684.4729 1065.85083 1687.561768 C 1067.825439 1692.721924 1068 1695.052612 1068 1716.260986 C 1068 1731.789307 1067.533691 1741.987915 1066.575439 1747.422119 C 1065.79187 1751.86499 1064.661865 1759.619507 1064.064331 1764.654541 C 1063.466675 1769.689453 1062.247437 1775.539551 1061.35498 1777.654541 C 1060.462402 1779.769531 1059.166626 1783.75 1058.475342 1786.5 C 1057.784058 1789.25 1056.19812 1793.974976 1054.950928 1797 C 1053.703735 1800.025024 1051.087158 1805.716919 1049.136108 1809.648682 C 1047.185181 1813.580566 1044.65271 1818.530518 1043.508545 1820.648682 C 1042.364258 1822.766846 1039.493042 1827.402588 1037.128052 1830.950195 C 1034.762939 1834.497925 1029.322876 1841.4729 1025.03894 1846.450195 C 1020.755005 1851.427612 1013.069092 1859.324951 1007.958984 1864 C 1002.848999 1868.675049 995.7052 1874.540527 992.083984 1877.034668 C 988.462769 1879.528809 983.25 1882.903809 980.5 1884.534668 C 977.75 1886.165527 973.474976 1888.548096 971 1889.829102 C 968.525024 1891.110107 963.912964 1893.248779 960.751099 1894.581787 C 957.589233 1895.914673 953.089233 1897.717773 950.751099 1898.588623 C 948.412964 1899.459473 944.174683 1901.060913 941.332642 1902.147339 C 938.490723 1903.233765 931.341797 1904.755859 925.446411 1905.529663 C 918.102783 1906.493652 914.107544 1907.497681 912.758789 1908.718262 C 910.878662 1910.419678 893.848633 1910.51001 534.64502 1910.720947 C 158.5 1910.941772 158.5 1910.941772 153.586426 1908.532959 C 150.747192 1907.141113 145.892456 1905.862549 142.086426 1905.504395 C 138.463867 1905.163574 133.581055 1904.254883 131.23584 1903.484863 C 128.890503 1902.714966 123.940552 1900.991455 120.23584 1899.654785 C 116.531128 1898.318237 110.800049 1896.161621 107.5 1894.862305 C 104.199951 1893.562988 97.469482 1890.288208 92.543213 1887.584961 C 87.617065 1884.881592 79.755493 1879.931641 75.07312 1876.584961 C 70.390747 1873.238281 60.246216 1864.176392 52.529785 1856.44751 C 42.883728 1846.785767 36.422424 1839.286865 31.850769 1832.44751 C 28.193726 1826.976318 23.308899 1818.900024 20.995667 1814.5 C 18.682434 1810.099976 15.443909 1803.349976 13.79895 1799.5 C 12.153992 1795.650024 10.228333 1790.186523 9.519653 1787.359131 C 8.810974 1784.531616 7.331238 1779.581665 6.231323 1776.359131 C 5.13147 1773.136597 3.908386 1766.900024 3.513306 1762.5 C 3.118286 1758.099976 2.166199 1751.197998 1.397522 1747.162109 C 0.449951 1742.186768 0 1732.298096 0 1716.449463 C 0 1695.081299 0.182739 1692.578247 2.12915 1687.287476 C 3.300171 1684.10437 4.987061 1680.665894 5.87793 1679.646362 C 6.768738 1678.626831 9.512878 1676.611572 11.976074 1675.168091 C 15.898804 1672.869263 17.884644 1672.47876 27.977295 1672.021729 L 39.5 1671.5 Z M 533.18457 1870.897705 C 842.979004 1870.984131 900.926636 1870.783936 906.68457 1869.606934 C 910.433105 1868.84082 916.195313 1867.89502 919.489502 1867.505127 C 922.783813 1867.115234 927.058838 1865.99707 928.989502 1865.020142 C 930.920288 1864.043213 934.525024 1862.787598 937 1862.229492 C 939.474976 1861.671631 945.986084 1858.866455 951.468994 1855.996094 C 956.951904 1853.125732 964.013306 1849.028198 967.161011 1846.890625 C 970.308716 1844.753052 976.397705 1840.026611 980.692139 1836.387207 C 984.98645 1832.747925 990.664795 1827.234497 993.310547 1824.135132 C 995.956299 1821.035889 1000.846802 1814.702637 1004.178345 1810.061279 C 1007.509888 1805.419922 1010.696289 1800.244995 1011.259399 1798.561279 C 1011.82251 1796.877563 1012.88269 1794.802734 1013.615234 1793.950439 C 1014.3479 1793.098022 1015.603027 1790.542236 1016.404419 1788.270752 C 1017.205811 1785.99939 1018.517212 1783.09668 1019.318481 1781.820435 C 1020.119873 1780.544189 1021.076294 1777.786499 1021.443848 1775.692261 C 1021.811523 1773.598022 1022.973511 1769.548096 1024.026123 1766.692261 C 1025.18335 1763.552856 1026.347168 1756.4375 1026.969971 1748.695557 C 1027.536499 1741.653076 1028 1731.515625 1028 1726.167969 C 1028 1718.986328 1027.59314 1715.864014 1026.443237 1714.222534 C 1024.886597 1712 1024.886597 1712 534 1712 C 43.113403 1712 43.113403 1712 41.556702 1714.222534 C 40.40686 1715.864014 40 1718.986328 40 1726.167969 C 40 1731.515625 40.470398 1741.653076 41.045349 1748.695557 C 41.6203 1755.738037 42.794495 1763.525024 43.654663 1766 C 44.514832 1768.474976 45.808655 1772.75 46.529785 1775.5 C 47.250977 1778.25 48.801514 1782.525024 49.975464 1785 C 51.149414 1787.474976 53.307861 1791.974976 54.771973 1795 C 56.236084 1798.025024 58.98645 1802.974976 60.883789 1806 C 62.781128 1809.025024 66.395874 1814.138428 68.916748 1817.363281 C 71.4375 1820.588135 76.199951 1826.025391 79.5 1829.446289 C 82.800049 1832.867065 88.425049 1837.893555 92 1840.616089 C 95.574951 1843.338623 102.255981 1847.957764 106.84668 1850.880615 C 111.4375 1853.803589 116.515869 1856.574341 118.132202 1857.037842 C 119.748535 1857.501465 122.517456 1858.752808 124.285522 1859.818604 C 126.053467 1860.884521 129.279053 1862.073975 131.453491 1862.461792 C 133.62793 1862.849609 137.00293 1863.976196 138.953491 1864.96521 C 140.904053 1865.954346 146.324951 1867.284302 151 1867.920898 C 155.675049 1868.557495 161.074951 1869.4646 163 1869.936768 C 164.925049 1870.408936 331.508057 1870.841309 533.18457 1870.897705 Z M 536.5 1830.61792 C 334.650024 1830.682617 168.375 1830.545532 167 1830.313232 C 165.625 1830.080811 162.474976 1829.243652 160 1828.452881 C 157.525024 1827.662231 152.908691 1826.53833 149.741577 1825.955322 C 146.574463 1825.372559 141.624512 1823.720459 138.741577 1822.284302 C 135.858765 1820.848145 131.814087 1818.619629 129.75354 1817.332031 C 127.692993 1816.044434 123.610352 1813.398193 120.681152 1811.451538 C 117.751831 1809.504883 112.635254 1805.119385 109.311035 1801.706055 C 105.986694 1798.292725 101.439453 1793.138428 99.206055 1790.252075 C 96.972656 1787.365723 94.174316 1782.415771 92.987427 1779.252075 C 91.658569 1775.709595 91.026733 1772.273682 91.342651 1770.307373 C 91.624756 1768.551514 92.717041 1765.167358 93.77002 1762.787109 C 95.385376 1759.135132 96.703247 1757.942261 102.211182 1755.146606 C 107.864136 1752.277344 109.198608 1751.960815 112.17749 1752.783325 C 114.069092 1753.305664 117.404785 1754.861694 119.59021 1756.241211 C 121.775513 1757.62085 125.548828 1761.393433 127.97522 1764.624756 C 130.401611 1767.856201 133.762207 1771.989746 135.443359 1773.810547 C 137.124512 1775.63147 142.054932 1779.403076 146.39978 1782.192139 C 151.452759 1785.435791 157.03833 1788.026611 161.89978 1789.381592 C 169.5 1791.5 169.5 1791.5 534 1791.5 C 898.5 1791.5 898.5 1791.5 906.10022 1789.381592 C 911.00647 1788.014038 916.564453 1785.425903 921.780396 1782.080078 C 926.224365 1779.22937 931.354248 1775.227051 933.180176 1773.185791 C 935.006104 1771.144531 938.26355 1766.890991 940.418945 1763.733276 C 942.768433 1760.291382 946.092041 1756.963989 948.717773 1755.425171 C 951.126831 1754.013428 954.621826 1752.611084 956.484497 1752.308838 C 958.843384 1751.926025 961.289673 1752.445923 964.545288 1754.021973 C 967.115967 1755.266357 970.259766 1757.233032 971.531372 1758.392334 C 972.803101 1759.551514 974.831177 1763.291016 976.03833 1766.702271 C 978.233154 1772.904541 978.233154 1772.904541 975.121216 1779.554688 C 973.409668 1783.21228 969.792236 1788.971191 967.08252 1792.352417 C 964.372803 1795.733643 959.758301 1800.794922 956.827881 1803.599854 C 953.897583 1806.404663 949.474976 1810.044434 947 1811.688354 C 944.525024 1813.332275 940.699951 1815.80127 938.5 1817.175049 C 936.300049 1818.549072 932.132324 1820.852783 929.238525 1822.294678 C 926.344727 1823.73645 921.283203 1825.404663 917.990601 1826.001709 C 914.697998 1826.598755 910.090698 1827.855103 907.752075 1828.793701 C 903.772705 1830.390625 879.958496 1830.507568 536.5 1830.61792 Z M 988.5 1671.5 C 989.053101 1636.140137 988.986938 1635.437744 986.920776 1633.75 C 984.887451 1632.089111 961.835327 1632 534.111694 1632 C 127.841675 1632 83.226074 1632.15332 81.222534 1633.556641 C 79.067627 1635.066162 79 1635.653809 79 1652.890015 C 79 1662.667236 79.300537 1670.967163 79.667725 1671.334473 C 80.035034 1671.70166 284.672485 1671.88916 534.417725 1671.751099 L 988.5 1671.5 Z"/>
            <path id="---" fill="#878787" fill-rule="evenodd" stroke="none" d="M 136 288 C 124.954399 288 116 296.954346 116 308 L 116 1608 C 116 1619.045654 124.954399 1628 136 1628 L 136 1628 C 147.045593 1628 156 1619.045654 156 1608 L 156 308 C 156 296.954346 147.045593 288 136 288 Z"/>
            <path id="----" fill="#878787" fill-rule="evenodd" stroke="none" d="M 941 288 C 929.954407 288 921 296.954346 921 308 L 921 1608 C 921 1619.045654 929.954407 1628 941 1628 L 941 1628 C 952.045593 1628 961 1619.045654 961 1608 L 961 308 C 961 296.954346 952.045593 288 941 288 Z"/>
        </g>
        <g id="g3">
            <path id="path3" fill="#878787" fill-rule="evenodd" stroke="none" d="M 552.561157 178 C 519.06958 178 519.06958 178 515.377808 174.758545 C 513.34729 172.97583 510.866577 169.713257 509.86499 167.508545 C 508.863403 165.303833 508.034058 161.572998 508.021973 159.217896 C 508.009888 156.862671 508.698853 153.262695 509.553101 151.217896 C 510.407227 149.173096 512.319702 146.22229 513.803101 144.660767 C 515.286377 143.099121 517.71521 141.186646 519.200317 140.410767 C 521.359863 139.282593 528.274292 139 553.722534 139 C 585.544312 139 585.544312 139 589.141724 141.965332 C 591.120361 143.596191 593.524292 146.584961 594.483765 148.607056 C 595.443237 150.629028 596.460938 154.017822 596.745239 156.137573 C 597.029541 158.257324 596.667358 162.116333 595.94043 164.712891 C 595.062134 167.849609 593.181152 170.87146 590.335571 173.717041 C 586.052612 178 586.052612 178 552.561157 178 Z"/>
            <path id="-" fill="#878787" fill-rule="evenodd" stroke="none" d="M 651.561157 178 C 618.06958 178 618.06958 178 614.377808 174.758545 C 612.34729 172.97583 609.866577 169.713257 608.86499 167.508545 C 607.863403 165.303833 607.034058 161.572998 607.021973 159.217896 C 607.009888 156.862671 607.698853 153.262695 608.553101 151.217896 C 609.407227 149.173096 611.319702 146.22229 612.803101 144.660767 C 614.286377 143.099121 616.71521 141.186646 618.200317 140.410767 C 620.359863 139.282593 627.274292 139 652.722534 139 C 684.544312 139 684.544312 139 688.141724 141.965332 C 690.120361 143.596191 692.524292 146.584961 693.483765 148.607056 C 694.443237 150.629028 695.460938 154.017822 695.745239 156.137573 C 696.029541 158.257324 695.667358 162.116333 694.94043 164.712891 C 694.062134 167.849609 692.181152 170.87146 689.335571 173.717041 C 685.052612 178 685.052612 178 651.561157 178 Z"/>
            <path id="path4" fill="#878787" fill-rule="evenodd" stroke="none" d="M 434.5 219 C 401.639099 219 375 192.36084 375 159.5 C 375 126.63916 401.639099 100 434.5 100 C 467.360901 100 494 126.63916 494 159.5 C 494 192.36084 467.360901 219 434.5 219 Z M 432.961212 182.06897 C 445.142456 182.06897 455.017242 172.194214 455.017242 160.012939 C 455.017242 147.831665 445.142456 137.956909 432.961212 137.956909 C 420.779968 137.956909 410.905182 147.831665 410.905182 160.012939 C 410.905182 172.194214 420.779968 182.06897 432.961212 182.06897 Z"/>
            <path id="path5" fill="#878787" fill-rule="evenodd" stroke="none" d="M 531.5 258.896606 C 370.5 258.795776 370.5 258.795776 360.5 256.075684 C 355 254.57959 348.025024 251.942749 345 250.216064 C 341.974976 248.48938 336.536743 244.021851 332.915039 240.28833 C 329.293213 236.554688 324.845703 231.117065 323.031494 228.204468 C 321.217407 225.291992 319.133545 220.226318 318.400635 216.947388 C 317.667847 213.668579 316.490356 208.418945 315.784058 205.281616 C 314.851929 201.140625 314.5 188.306396 314.5 158.449219 C 314.5 118.31311 314.558472 117.081909 316.924438 107.410522 C 318.257813 101.959717 320.867676 94.686768 322.724243 91.248413 C 324.580688 87.810059 329.130371 81.923828 332.834595 78.167725 C 336.559204 74.391113 342.459229 69.746094 346.03479 67.775757 C 350.661377 65.226074 356.054688 63.450684 365 61.532471 C 377.5 58.852051 377.5 58.852051 538 59.218994 C 698.5 59.585815 698.5 59.585815 706.661621 62.234497 C 711.150635 63.691284 717.450562 66.356934 720.661621 68.158325 C 723.872803 69.959595 729.650024 74.664795 733.5 78.614136 C 737.661621 82.883179 741.80127 88.370728 743.709229 92.147461 C 745.474243 95.641357 747.949219 103 749.209229 108.5 C 751.397461 118.052734 751.5 120.338013 751.5 159.588867 C 751.5 199.778564 751.446533 200.894531 749.05896 210.588867 C 747.716431 216.039917 745.067871 223.352295 743.173462 226.838501 C 741.278931 230.324707 736.752441 236.189331 733.114502 239.870972 C 729.476563 243.552734 723.51001 248.233276 719.855713 250.272339 C 715.730835 252.573853 709.284668 254.93103 702.855713 256.488525 C 692.5 258.997437 692.5 258.997437 531.5 258.896606 Z M 495.749878 218.518188 C 566.83728 218.203491 640.862305 217.845703 660.249878 217.723022 C 695.5 217.5 695.5 217.5 701.589111 214.5 C 707.594727 211.541016 707.69397 211.42395 708.839111 205.939819 C 709.614746 202.224854 709.992065 186.626709 709.976074 158.939819 C 709.963013 136.147949 709.536499 115.699951 709.02832 113.5 C 708.392334 110.746338 706.816406 108.358643 703.970947 105.836914 C 701.69751 103.822266 699.223267 101.689575 698.472534 101.097778 C 697.511353 100.339966 648.422363 100.007324 532.526855 99.973145 C 367.946167 99.924438 367.946167 99.924438 362.575195 105.21228 C 357.728882 109.983643 357.139404 111.037109 356.539307 116 C 356.173584 119.025024 356.083984 140.400024 356.340454 163.5 C 356.596802 186.599976 357.123901 207.681396 357.511719 210.347412 C 358.159302 214.799072 358.555054 215.353882 362.358398 217.142578 C 366.41626 219.051025 369.114258 219.078735 495.749878 218.518188 Z"/>
        </g>
        <g id="g4">
            <a class="popup-link" data-popup="popup1" id="popupLink1bottle" data="popup0bottle">
              <g class="bottle" id="bottle1">
                <svg class="bottle-background" viewBox="0 0 380.722 380.721" width='385px' x="0" y="-775">
                        <path fill="#cecbcb" stroke="none" d="M 288.155792 496.117798 C 288.155792 473.078491 288.155792 369.00061 288.155792 369.00061 L 271.045746 369.00061 L 260.91391 369.00061 L 243.81192 369.00061 C 243.81192 369.00061 243.81192 473.078491 243.81192 496.117798 C 243.81192 519.157104 200.499527 547.125244 200.499527 579.961548 C 200.499527 612.789795 200.499527 850.281128 200.499527 858.655273 C 200.499527 867.032104 206.10202 880.99939 218.655853 880.99939 C 227.202133 880.99939 248.257874 880.99939 260.930054 880.99939 C 266.914459 880.99939 271.06189 880.99939 271.06189 880.99939 C 283.73407 880.99939 304.780365 880.99939 313.328003 880.99939 C 325.891266 880.99939 331.500488 867.030762 331.500488 858.655273 C 331.500488 850.279785 331.500488 612.788452 331.500488 579.961548 C 331.499115 547.125244 288.155792 519.171875 288.155792 496.117798 Z M 253.382965 533.445801 C 250.579025 537.274414 247.445602 542.102295 244.040543 547.672607 C 240.595139 553.257568 237.329941 559.766479 234.009583 566.828125 C 232.74411 570.4375 231.446381 574.219116 230.361099 578.007568 C 230.322098 582.023071 229.048569 584.984375 229.603973 590.023438 C 229.94017 599.367188 230.307327 609.195068 230.681183 619.367188 C 231.353592 639.718262 231.478638 661.438354 231.650772 683.140991 C 231.603699 726.561035 230.291168 769.999756 228.260513 802.561768 C 227.370239 818.843384 225.909775 832.404541 225.221222 841.90564 C 224.378021 851.405396 223.674698 856.842407 223.674698 856.842407 C 223.674698 856.842407 222.96463 851.405396 222.120087 841.90564 C 221.432877 832.405884 219.971085 818.844727 219.080811 802.561768 C 217.050156 769.999756 215.736267 726.561035 215.690536 683.140991 C 215.846542 661.437012 215.971603 639.718262 216.658813 619.367188 C 217.033997 609.196411 217.401154 599.367188 217.73735 590.023438 C 217.573273 585.687744 219.205887 579.797485 220.13649 575.109375 C 221.941223 570.695801 223.940964 566.60083 225.8479 562.742554 C 228.169052 559.194946 230.363785 555.796509 232.472458 552.570313 C 234.871613 549.625244 237.144348 546.844116 239.269135 544.202881 C 243.690903 539.108765 247.620438 534.804077 251.051056 531.444702 C 257.831604 524.664185 262.183411 521.335693 262.183411 521.335693 C 262.183411 521.335693 258.789124 525.671387 253.382965 533.445801 Z"/>
                  </svg>
                  <svg class="bottle-fill" style="clip-path: polygon(0% {{ volumes[0] }}%, 100% {{ volumes[0] }}%, 100% 100%, 0% 100%)" viewBox="0 0 380.722 380.721" width='385px' x="0" y="-775">      <path fill="#DC2B20" stroke="none" d="M 288.155792 496.117798 C 288.155792 473.078491 288.155792 369.00061 288.155792 369.00061 L 271.045746 369.00061 L 260.91391 369.00061 L 243.81192 369.00061 C 243.81192 369.00061 243.81192 473.078491 243.81192 496.117798 C 243.81192 519.157104 200.499527 547.125244 200.499527 579.961548 C 200.499527 612.789795 200.499527 850.281128 200.499527 858.655273 C 200.499527 867.032104 206.10202 880.99939 218.655853 880.99939 C 227.202133 880.99939 248.257874 880.99939 260.930054 880.99939 C 266.914459 880.99939 271.06189 880.99939 271.06189 880.99939 C 283.73407 880.99939 304.780365 880.99939 313.328003 880.99939 C 325.891266 880.99939 331.500488 867.030762 331.500488 858.655273 C 331.500488 850.279785 331.500488 612.788452 331.500488 579.961548 C 331.499115 547.125244 288.155792 519.171875 288.155792 496.117798 Z M 253.382965 533.445801 C 250.579025 537.274414 247.445602 542.102295 244.040543 547.672607 C 240.595139 553.257568 237.329941 559.766479 234.009583 566.828125 C 232.74411 570.4375 231.446381 574.219116 230.361099 578.007568 C 230.322098 582.023071 229.048569 584.984375 229.603973 590.023438 C 229.94017 599.367188 230.307327 609.195068 230.681183 619.367188 C 231.353592 639.718262 231.478638 661.438354 231.650772 683.140991 C 231.603699 726.561035 230.291168 769.999756 228.260513 802.561768 C 227.370239 818.843384 225.909775 832.404541 225.221222 841.90564 C 224.378021 851.405396 223.674698 856.842407 223.674698 856.842407 C 223.674698 856.842407 222.96463 851.405396 222.120087 841.90564 C 221.432877 832.405884 219.971085 818.844727 219.080811 802.561768 C 217.050156 769.999756 215.736267 726.561035 215.690536 683.140991 C 215.846542 661.437012 215.971603 639.718262 216.658813 619.367188 C 217.033997 609.196411 217.401154 599.367188 217.73735 590.023438 C 217.573273 585.687744 219.205887 579.797485 220.13649 575.109375 C 221.941223 570.695801 223.940964 566.60083 225.8479 562.742554 C 228.169052 559.194946 230.363785 555.796509 232.472458 552.570313 C 234.871613 549.625244 237.144348 546.844116 239.269135 544.202881 C 243.690903 539.108765 247.620438 534.804077 251.051056 531.444702 C 257.831604 524.664185 262.183411 521.335693 262.183411 521.335693 C 262.183411 521.335693 258.789124 525.671387 253.382965 533.445801 Z"/>
                        <path fill="#DC2B20" stroke="none" d="M 288.155792 496.117798 C 288.155792 473.078491 288.155792 369.00061 288.155792 369.00061 L 271.045746 369.00061 L 260.91391 369.00061 L 243.81192 369.00061 C 243.81192 369.00061 243.81192 473.078491 243.81192 496.117798 C 243.81192 519.157104 200.499527 547.125244 200.499527 579.961548 C 200.499527 612.789795 200.499527 850.281128 200.499527 858.655273 C 200.499527 867.032104 206.10202 880.99939 218.655853 880.99939 C 227.202133 880.99939 248.257874 880.99939 260.930054 880.99939 C 266.914459 880.99939 271.06189 880.99939 271.06189 880.99939 C 283.73407 880.99939 304.780365 880.99939 313.328003 880.99939 C 325.891266 880.99939 331.500488 867.030762 331.500488 858.655273 C 331.500488 850.279785 331.500488 612.788452 331.500488 579.961548 C 331.499115 547.125244 288.155792 519.171875 288.155792 496.117798 Z M 253.382965 533.445801 C 250.579025 537.274414 247.445602 542.102295 244.040543 547.672607 C 240.595139 553.257568 237.329941 559.766479 234.009583 566.828125 C 232.74411 570.4375 231.446381 574.219116 230.361099 578.007568 C 230.322098 582.023071 229.048569 584.984375 229.603973 590.023438 C 229.94017 599.367188 230.307327 609.195068 230.681183 619.367188 C 231.353592 639.718262 231.478638 661.438354 231.650772 683.140991 C 231.603699 726.561035 230.291168 769.999756 228.260513 802.561768 C 227.370239 818.843384 225.909775 832.404541 225.221222 841.90564 C 224.378021 851.405396 223.674698 856.842407 223.674698 856.842407 C 223.674698 856.842407 222.96463 851.405396 222.120087 841.90564 C 221.432877 832.405884 219.971085 818.844727 219.080811 802.561768 C 217.050156 769.999756 215.736267 726.561035 215.690536 683.140991 C 215.846542 661.437012 215.971603 639.718262 216.658813 619.367188 C 217.033997 609.196411 217.401154 599.367188 217.73735 590.023438 C 217.573273 585.687744 219.205887 579.797485 220.13649 575.109375 C 221.941223 570.695801 223.940964 566.60083 225.8479 562.742554 C 228.169052 559.194946 230.363785 555.796509 232.472458 552.570313 C 234.871613 549.625244 237.144348 546.844116 239.269135 544.202881 C 243.690903 539.108765 247.620438 534.804077 251.051056 531.444702 C 257.831604 524.664185 262.183411 521.335693 262.183411 521.335693 C 262.183411 521.335693 258.789124 525.671387 253.382965 533.445801 Z"/>
                  </svg>
              </g>
            </a>

            <a class="popup-link" data-popup="popup2" id="popupLink2bottle" data="popup1bottle">
                <g class="bottle" id="bottle2">
                    <svg class="bottle-background" viewBox="200 0 380.722 380.721" width='385px' x="200" y="-775">
                        <path fill="#CECBCB" stroke="none" d="M 466.155792 496.117798 C 466.155792 473.078491 466.155792 369.00061 466.155792 369.00061 L 449.045746 369.00061 L 438.91391 369.00061 L 421.81192 369.00061 C 421.81192 369.00061 421.81192 473.078491 421.81192 496.117798 C 421.81192 519.157104 378.499542 547.125244 378.499542 579.961548 C 378.499542 612.789795 378.499542 850.281128 378.499542 858.655273 C 378.499542 867.032104 384.10202 880.99939 396.655853 880.99939 C 405.202148 880.99939 426.257874 880.99939 438.930054 880.99939 C 444.914459 880.99939 449.06189 880.99939 449.06189 880.99939 C 461.73407 880.99939 482.780365 880.99939 491.328003 880.99939 C 503.891266 880.99939 509.500488 867.030762 509.500488 858.655273 C 509.500488 850.279785 509.500488 612.788452 509.500488 579.961548 C 509.499115 547.125244 466.155792 519.171875 466.155792 496.117798 Z M 431.382965 533.445801 C 428.579041 537.274414 425.445618 542.102295 422.040558 547.672607 C 418.595154 553.257568 415.329956 559.766479 412.009583 566.828125 C 410.74411 570.4375 409.446381 574.219116 408.361115 578.007568 C 408.322113 582.023071 407.048584 584.984375 407.603973 590.023438 C 407.940186 599.367188 408.307343 609.195068 408.681183 619.367188 C 409.353607 639.718262 409.478638 661.438354 409.650787 683.140991 C 409.603699 726.561035 408.291168 769.999756 406.260529 802.561768 C 405.370239 818.843384 403.90979 832.404541 403.221222 841.90564 C 402.378021 851.405396 401.674713 856.842407 401.674713 856.842407 C 401.674713 856.842407 400.96463 851.405396 400.120087 841.90564 C 399.432892 832.405884 397.9711 818.844727 397.080811 802.561768 C 395.050171 769.999756 393.736267 726.561035 393.690552 683.140991 C 393.846558 661.437012 393.971619 639.718262 394.658813 619.367188 C 395.033997 609.196411 395.401154 599.367188 395.737366 590.023438 C 395.573273 585.687744 397.205902 579.797485 398.136505 575.109375 C 399.941223 570.695801 401.940979 566.60083 403.8479 562.742554 C 406.169067 559.194946 408.3638 555.796509 410.472473 552.570313 C 412.871613 549.625244 415.144348 546.844116 417.269135 544.202881 C 421.690918 539.108765 425.620453 534.804077 429.051056 531.444702 C 435.831604 524.664185 440.183411 521.335693 440.183411 521.335693 C 440.183411 521.335693 436.789124 525.671387 431.382965 533.445801 Z"/>
                    </svg>

                    <svg class="bottle-fill" style="clip-path: polygon(0% {{ volumes[1] }}%, 100% {{ volumes[1] }}%, 100% 100%, 0% 100%)" viewBox="200 0 380.722 380.721" width='385px' x="200" y="-775">
                        <path fill="#DC2B20" stroke="none" d="M 466.155792 496.117798 C 466.155792 473.078491 466.155792 369.00061 466.155792 369.00061 L 449.045746 369.00061 L 438.91391 369.00061 L 421.81192 369.00061 C 421.81192 369.00061 421.81192 473.078491 421.81192 496.117798 C 421.81192 519.157104 378.499542 547.125244 378.499542 579.961548 C 378.499542 612.789795 378.499542 850.281128 378.499542 858.655273 C 378.499542 867.032104 384.10202 880.99939 396.655853 880.99939 C 405.202148 880.99939 426.257874 880.99939 438.930054 880.99939 C 444.914459 880.99939 449.06189 880.99939 449.06189 880.99939 C 461.73407 880.99939 482.780365 880.99939 491.328003 880.99939 C 503.891266 880.99939 509.500488 867.030762 509.500488 858.655273 C 509.500488 850.279785 509.500488 612.788452 509.500488 579.961548 C 509.499115 547.125244 466.155792 519.171875 466.155792 496.117798 Z M 431.382965 533.445801 C 428.579041 537.274414 425.445618 542.102295 422.040558 547.672607 C 418.595154 553.257568 415.329956 559.766479 412.009583 566.828125 C 410.74411 570.4375 409.446381 574.219116 408.361115 578.007568 C 408.322113 582.023071 407.048584 584.984375 407.603973 590.023438 C 407.940186 599.367188 408.307343 609.195068 408.681183 619.367188 C 409.353607 639.718262 409.478638 661.438354 409.650787 683.140991 C 409.603699 726.561035 408.291168 769.999756 406.260529 802.561768 C 405.370239 818.843384 403.90979 832.404541 403.221222 841.90564 C 402.378021 851.405396 401.674713 856.842407 401.674713 856.842407 C 401.674713 856.842407 400.96463 851.405396 400.120087 841.90564 C 399.432892 832.405884 397.9711 818.844727 397.080811 802.561768 C 395.050171 769.999756 393.736267 726.561035 393.690552 683.140991 C 393.846558 661.437012 393.971619 639.718262 394.658813 619.367188 C 395.033997 609.196411 395.401154 599.367188 395.737366 590.023438 C 395.573273 585.687744 397.205902 579.797485 398.136505 575.109375 C 399.941223 570.695801 401.940979 566.60083 403.8479 562.742554 C 406.169067 559.194946 408.3638 555.796509 410.472473 552.570313 C 412.871613 549.625244 415.144348 546.844116 417.269135 544.202881 C 421.690918 539.108765 425.620453 534.804077 429.051056 531.444702 C 435.831604 524.664185 440.183411 521.335693 440.183411 521.335693 C 440.183411 521.335693 436.789124 525.671387 431.382965 533.445801 Z"/>
                    </svg>
                </g>
            </a>

            <a class="popup-link" data-popup="popup3" id="popupLink3bottle" data="popup2bottle">
                <g class="bottle" id="bottle3">
                    <svg class="bottle-background" viewBox="400 0 380.722 380.721" width='385px' x="400" y="-775">
                        <path fill="#CECBCB" stroke="none" d="M 648.155823 496.117798 C 648.155823 473.078491 648.155823 369.00061 648.155823 369.00061 L 631.045776 369.00061 L 620.91394 369.00061 L 603.811951 369.00061 C 603.811951 369.00061 603.811951 473.078491 603.811951 496.117798 C 603.811951 519.157104 560.499512 547.125244 560.499512 579.961548 C 560.499512 612.789795 560.499512 850.281128 560.499512 858.655273 C 560.499512 867.032104 566.102051 880.99939 578.655884 880.99939 C 587.202148 880.99939 608.257874 880.99939 620.930054 880.99939 C 626.91449 880.99939 631.06189 880.99939 631.06189 880.99939 C 643.73407 880.99939 664.780396 880.99939 673.328003 880.99939 C 685.891296 880.99939 691.500488 867.030762 691.500488 858.655273 C 691.500488 850.279785 691.500488 612.788452 691.500488 579.961548 C 691.499146 547.125244 648.155823 519.171875 648.155823 496.117798 Z M 613.382996 533.445801 C 610.579041 537.274414 607.445618 542.102295 604.040527 547.672607 C 600.595154 553.257568 597.329956 559.766479 594.009583 566.828125 C 592.744141 570.4375 591.446411 574.219116 590.361084 578.007568 C 590.322083 582.023071 589.048584 584.984375 589.604004 590.023438 C 589.940186 599.367188 590.307312 609.195068 590.681213 619.367188 C 591.353577 639.718262 591.478638 661.438354 591.650757 683.140991 C 591.603699 726.561035 590.291199 769.999756 588.260498 802.561768 C 587.370239 818.843384 585.90979 832.404541 585.221252 841.90564 C 584.378052 851.405396 583.674683 856.842407 583.674683 856.842407 C 583.674683 856.842407 582.964661 851.405396 582.120117 841.90564 C 581.432861 832.405884 579.971069 818.844727 579.080811 802.561768 C 577.050171 769.999756 575.736267 726.561035 575.690552 683.140991 C 575.846558 661.437012 575.971619 639.718262 576.658813 619.367188 C 577.033997 609.196411 577.401184 599.367188 577.737366 590.023438 C 577.573303 585.687744 579.205872 579.797485 580.136475 575.109375 C 581.941223 570.695801 583.940979 566.60083 585.8479 562.742554 C 588.169067 559.194946 590.36377 555.796509 592.472473 552.570313 C 594.871643 549.625244 597.144348 546.844116 599.269165 544.202881 C 603.690918 539.108765 607.620422 534.804077 611.051086 531.444702 C 617.831604 524.664185 622.183411 521.335693 622.183411 521.335693 C 622.183411 521.335693 618.789124 525.671387 613.382996 533.445801 Z"/>
                    </svg>
                    <svg class="bottle-fill"  style="clip-path: polygon(0% {{ volumes[2] }}%, 100% {{ volumes[2] }}%, 100% 100%, 0% 100%)" viewBox="400 0 380.722 380.721" width='385px' x="400" y="-775">
                        <path fill="#DC2B20" stroke="none" d="M 648.155823 496.117798 C 648.155823 473.078491 648.155823 369.00061 648.155823 369.00061 L 631.045776 369.00061 L 620.91394 369.00061 L 603.811951 369.00061 C 603.811951 369.00061 603.811951 473.078491 603.811951 496.117798 C 603.811951 519.157104 560.499512 547.125244 560.499512 579.961548 C 560.499512 612.789795 560.499512 850.281128 560.499512 858.655273 C 560.499512 867.032104 566.102051 880.99939 578.655884 880.99939 C 587.202148 880.99939 608.257874 880.99939 620.930054 880.99939 C 626.91449 880.99939 631.06189 880.99939 631.06189 880.99939 C 643.73407 880.99939 664.780396 880.99939 673.328003 880.99939 C 685.891296 880.99939 691.500488 867.030762 691.500488 858.655273 C 691.500488 850.279785 691.500488 612.788452 691.500488 579.961548 C 691.499146 547.125244 648.155823 519.171875 648.155823 496.117798 Z M 613.382996 533.445801 C 610.579041 537.274414 607.445618 542.102295 604.040527 547.672607 C 600.595154 553.257568 597.329956 559.766479 594.009583 566.828125 C 592.744141 570.4375 591.446411 574.219116 590.361084 578.007568 C 590.322083 582.023071 589.048584 584.984375 589.604004 590.023438 C 589.940186 599.367188 590.307312 609.195068 590.681213 619.367188 C 591.353577 639.718262 591.478638 661.438354 591.650757 683.140991 C 591.603699 726.561035 590.291199 769.999756 588.260498 802.561768 C 587.370239 818.843384 585.90979 832.404541 585.221252 841.90564 C 584.378052 851.405396 583.674683 856.842407 583.674683 856.842407 C 583.674683 856.842407 582.964661 851.405396 582.120117 841.90564 C 581.432861 832.405884 579.971069 818.844727 579.080811 802.561768 C 577.050171 769.999756 575.736267 726.561035 575.690552 683.140991 C 575.846558 661.437012 575.971619 639.718262 576.658813 619.367188 C 577.033997 609.196411 577.401184 599.367188 577.737366 590.023438 C 577.573303 585.687744 579.205872 579.797485 580.136475 575.109375 C 581.941223 570.695801 583.940979 566.60083 585.8479 562.742554 C 588.169067 559.194946 590.36377 555.796509 592.472473 552.570313 C 594.871643 549.625244 597.144348 546.844116 599.269165 544.202881 C 603.690918 539.108765 607.620422 534.804077 611.051086 531.444702 C 617.831604 524.664185 622.183411 521.335693 622.183411 521.335693 C 622.183411 521.335693 618.789124 525.671387 613.382996 533.445801 Z"/>
                    </svg>
                </g>
            </a>

            <a class="popup-link" data-popup="popup4" id="popupLink4bottle" data="popup3bottle">
                <g class="bottle" id="bottle4">
                    <svg class="bottle-background" viewBox="600 0 380.722 380.721" width='385px' x="600" y="-775">
                        <path fill="#CECBCB" stroke="none" d="M 825.155823 496.117798 C 825.155823 473.078491 825.155823 369.00061 825.155823 369.00061 L 808.045776 369.00061 L 797.91394 369.00061 L 780.811951 369.00061 C 780.811951 369.00061 780.811951 473.078491 780.811951 496.117798 C 780.811951 519.157104 737.499512 547.125244 737.499512 579.961548 C 737.499512 612.789795 737.499512 850.281128 737.499512 858.655273 C 737.499512 867.032104 743.102051 880.99939 755.655884 880.99939 C 764.202148 880.99939 785.257874 880.99939 797.930054 880.99939 C 803.91449 880.99939 808.06189 880.99939 808.06189 880.99939 C 820.73407 880.99939 841.780396 880.99939 850.328003 880.99939 C 862.891296 880.99939 868.500488 867.030762 868.500488 858.655273 C 868.500488 850.279785 868.500488 612.788452 868.500488 579.961548 C 868.499146 547.125244 825.155823 519.171875 825.155823 496.117798 Z M 790.382996 533.445801 C 787.579041 537.274414 784.445618 542.102295 781.040527 547.672607 C 777.595154 553.257568 774.329956 559.766479 771.009583 566.828125 C 769.744141 570.4375 768.446411 574.219116 767.361084 578.007568 C 767.322083 582.023071 766.048584 584.984375 766.604004 590.023438 C 766.940186 599.367188 767.307312 609.195068 767.681213 619.367188 C 768.353577 639.718262 768.478638 661.438354 768.650757 683.140991 C 768.603699 726.561035 767.291199 769.999756 765.260498 802.561768 C 764.370239 818.843384 762.90979 832.404541 762.221252 841.90564 C 761.378052 851.405396 760.674683 856.842407 760.674683 856.842407 C 760.674683 856.842407 759.964661 851.405396 759.120117 841.90564 C 758.432861 832.405884 756.971069 818.844727 756.080811 802.561768 C 754.050171 769.999756 752.736267 726.561035 752.690552 683.140991 C 752.846558 661.437012 752.971619 639.718262 753.658813 619.367188 C 754.033997 609.196411 754.401184 599.367188 754.737366 590.023438 C 754.573303 585.687744 756.205872 579.797485 757.136475 575.109375 C 758.941223 570.695801 760.940979 566.60083 762.8479 562.742554 C 765.169067 559.194946 767.36377 555.796509 769.472473 552.570313 C 771.871643 549.625244 774.144348 546.844116 776.269165 544.202881 C 780.690918 539.108765 784.620422 534.804077 788.051086 531.444702 C 794.831604 524.664185 799.183411 521.335693 799.183411 521.335693 C 799.183411 521.335693 795.789124 525.671387 790.382996 533.445801 Z"/>
                    </svg>
                    <svg class="bottle-fill"  style="clip-path: polygon(0% {{ volumes[3] }}%, 100% {{ volumes[3] }}%, 100% 100%, 0% 100%)" viewBox="600 0 380.722 380.721" width='385px' x="600" y="-775">
                        <path fill="#DC2B20" stroke="none" d="M 825.155823 496.117798 C 825.155823 473.078491 825.155823 369.00061 825.155823 369.00061 L 808.045776 369.00061 L 797.91394 369.00061 L 780.811951 369.00061 C 780.811951 369.00061 780.811951 473.078491 780.811951 496.117798 C 780.811951 519.157104 737.499512 547.125244 737.499512 579.961548 C 737.499512 612.789795 737.499512 850.281128 737.499512 858.655273 C 737.499512 867.032104 743.102051 880.99939 755.655884 880.99939 C 764.202148 880.99939 785.257874 880.99939 797.930054 880.99939 C 803.91449 880.99939 808.06189 880.99939 808.06189 880.99939 C 820.73407 880.99939 841.780396 880.99939 850.328003 880.99939 C 862.891296 880.99939 868.500488 867.030762 868.500488 858.655273 C 868.500488 850.279785 868.500488 612.788452 868.500488 579.961548 C 868.499146 547.125244 825.155823 519.171875 825.155823 496.117798 Z M 790.382996 533.445801 C 787.579041 537.274414 784.445618 542.102295 781.040527 547.672607 C 777.595154 553.257568 774.329956 559.766479 771.009583 566.828125 C 769.744141 570.4375 768.446411 574.219116 767.361084 578.007568 C 767.322083 582.023071 766.048584 584.984375 766.604004 590.023438 C 766.940186 599.367188 767.307312 609.195068 767.681213 619.367188 C 768.353577 639.718262 768.478638 661.438354 768.650757 683.140991 C 768.603699 726.561035 767.291199 769.999756 765.260498 802.561768 C 764.370239 818.843384 762.90979 832.404541 762.221252 841.90564 C 761.378052 851.405396 760.674683 856.842407 760.674683 856.842407 C 760.674683 856.842407 759.964661 851.405396 759.120117 841.90564 C 758.432861 832.405884 756.971069 818.844727 756.080811 802.561768 C 754.050171 769.999756 752.736267 726.561035 752.690552 683.140991 C 752.846558 661.437012 752.971619 639.718262 753.658813 619.367188 C 754.033997 609.196411 754.401184 599.367188 754.737366 590.023438 C 754.573303 585.687744 756.205872 579.797485 757.136475 575.109375 C 758.941223 570.695801 760.940979 566.60083 762.8479 562.742554 C 765.169067 559.194946 767.36377 555.796509 769.472473 552.570313 C 771.871643 549.625244 774.144348 546.844116 776.269165 544.202881 C 780.690918 539.108765 784.620422 534.804077 788.051086 531.444702 C 794.831604 524.664185 799.183411 521.335693 799.183411 521.335693 C 799.183411 521.335693 795.789124 525.671387 790.382996 533.445801 Z"/>
                    </svg>
                </g>
            </a>

            <a class="popup-link" data-popup="popup5" id="popupLink5bottle" data="popup4bottle">
                <g class="bottle" id="bottle5">
                    <svg class="bottle-background" viewBox="0 400 380.722 380.721" width='385px' x="0" y="-375">
                        <path fill="#CECBCB" stroke="none" d="M 288.155792 1122.117798 C 288.155792 1099.078369 288.155792 995.000671 288.155792 995.000671 L 271.045746 995.000671 L 260.91391 995.000671 L 243.81192 995.000671 C 243.81192 995.000671 243.81192 1099.078369 243.81192 1122.117798 C 243.81192 1145.157104 200.499527 1173.125244 200.499527 1205.961426 C 200.499527 1238.789795 200.499527 1476.281128 200.499527 1484.655273 C 200.499527 1493.032104 206.10202 1506.999268 218.655853 1506.999268 C 227.202133 1506.999268 248.257874 1506.999268 260.930054 1506.999268 C 266.914459 1506.999268 271.06189 1506.999268 271.06189 1506.999268 C 283.73407 1506.999268 304.780365 1506.999268 313.328003 1506.999268 C 325.891266 1506.999268 331.500488 1493.030762 331.500488 1484.655273 C 331.500488 1476.279785 331.500488 1238.78833 331.500488 1205.961426 C 331.499115 1173.125244 288.155792 1145.171875 288.155792 1122.117798 Z M 253.382965 1159.445801 C 250.579025 1163.274414 247.445602 1168.102295 244.040543 1173.672607 C 240.595139 1179.257568 237.329941 1185.766479 234.009583 1192.828125 C 232.74411 1196.4375 231.446381 1200.219238 230.361099 1204.007568 C 230.322098 1208.023193 229.048569 1210.984375 229.603973 1216.023438 C 229.94017 1225.367188 230.307327 1235.195068 230.681183 1245.367188 C 231.353592 1265.718262 231.478638 1287.438354 231.650772 1309.140991 C 231.603699 1352.561035 230.291168 1395.999756 228.260513 1428.561768 C 227.370239 1444.843384 225.909775 1458.404541 225.221222 1467.90564 C 224.378021 1477.405396 223.674698 1482.842407 223.674698 1482.842407 C 223.674698 1482.842407 222.96463 1477.405396 222.120087 1467.90564 C 221.432877 1458.405884 219.971085 1444.844727 219.080811 1428.561768 C 217.050156 1395.999756 215.736267 1352.561035 215.690536 1309.140991 C 215.846542 1287.437012 215.971603 1265.718262 216.658813 1245.367188 C 217.033997 1235.196411 217.401154 1225.367188 217.73735 1216.023438 C 217.573273 1211.687744 219.205887 1205.797363 220.13649 1201.109375 C 221.941223 1196.695801 223.940964 1192.60083 225.8479 1188.742432 C 228.169052 1185.194824 230.363785 1181.796631 232.472458 1178.570313 C 234.871613 1175.625244 237.144348 1172.844238 239.269135 1170.202881 C 243.690903 1165.108765 247.620438 1160.803955 251.051056 1157.444702 C 257.831604 1150.664063 262.183411 1147.335693 262.183411 1147.335693 C 262.183411 1147.335693 258.789124 1151.671387 253.382965 1159.445801 Z"/>
                    </svg>
                    <svg class="bottle-fill"  style="clip-path: polygon(0% {{ volumes[4] }}%, 100% {{ volumes[4] }}%, 100% 100%, 0% 100%)" viewBox="0 400 380.722 380.721" width='385px' x="0" y="-375">
                        <path fill="#DC2B20" stroke="none" d="M 288.155792 1122.117798 C 288.155792 1099.078369 288.155792 995.000671 288.155792 995.000671 L 271.045746 995.000671 L 260.91391 995.000671 L 243.81192 995.000671 C 243.81192 995.000671 243.81192 1099.078369 243.81192 1122.117798 C 243.81192 1145.157104 200.499527 1173.125244 200.499527 1205.961426 C 200.499527 1238.789795 200.499527 1476.281128 200.499527 1484.655273 C 200.499527 1493.032104 206.10202 1506.999268 218.655853 1506.999268 C 227.202133 1506.999268 248.257874 1506.999268 260.930054 1506.999268 C 266.914459 1506.999268 271.06189 1506.999268 271.06189 1506.999268 C 283.73407 1506.999268 304.780365 1506.999268 313.328003 1506.999268 C 325.891266 1506.999268 331.500488 1493.030762 331.500488 1484.655273 C 331.500488 1476.279785 331.500488 1238.78833 331.500488 1205.961426 C 331.499115 1173.125244 288.155792 1145.171875 288.155792 1122.117798 Z M 253.382965 1159.445801 C 250.579025 1163.274414 247.445602 1168.102295 244.040543 1173.672607 C 240.595139 1179.257568 237.329941 1185.766479 234.009583 1192.828125 C 232.74411 1196.4375 231.446381 1200.219238 230.361099 1204.007568 C 230.322098 1208.023193 229.048569 1210.984375 229.603973 1216.023438 C 229.94017 1225.367188 230.307327 1235.195068 230.681183 1245.367188 C 231.353592 1265.718262 231.478638 1287.438354 231.650772 1309.140991 C 231.603699 1352.561035 230.291168 1395.999756 228.260513 1428.561768 C 227.370239 1444.843384 225.909775 1458.404541 225.221222 1467.90564 C 224.378021 1477.405396 223.674698 1482.842407 223.674698 1482.842407 C 223.674698 1482.842407 222.96463 1477.405396 222.120087 1467.90564 C 221.432877 1458.405884 219.971085 1444.844727 219.080811 1428.561768 C 217.050156 1395.999756 215.736267 1352.561035 215.690536 1309.140991 C 215.846542 1287.437012 215.971603 1265.718262 216.658813 1245.367188 C 217.033997 1235.196411 217.401154 1225.367188 217.73735 1216.023438 C 217.573273 1211.687744 219.205887 1205.797363 220.13649 1201.109375 C 221.941223 1196.695801 223.940964 1192.60083 225.8479 1188.742432 C 228.169052 1185.194824 230.363785 1181.796631 232.472458 1178.570313 C 234.871613 1175.625244 237.144348 1172.844238 239.269135 1170.202881 C 243.690903 1165.108765 247.620438 1160.803955 251.051056 1157.444702 C 257.831604 1150.664063 262.183411 1147.335693 262.183411 1147.335693 C 262.183411 1147.335693 258.789124 1151.671387 253.382965 1159.445801 Z"/>
                    </svg>
                </g>
            </a>

            <a class="popup-link" data-popup="popup6" id="popupLink6bottle" data="popup5bottle">
                <g class="bottle" id="bottle6">
                    <svg class="bottle-background" viewBox="200 400 380.722 380.721" width='385px' x="200" y="-375">
                        <path fill="#CECBCB" stroke="none" d="M 466.155792 1122.117798 C 466.155792 1099.078369 466.155792 995.000671 466.155792 995.000671 L 449.045746 995.000671 L 438.91391 995.000671 L 421.81192 995.000671 C 421.81192 995.000671 421.81192 1099.078369 421.81192 1122.117798 C 421.81192 1145.157104 378.499542 1173.125244 378.499542 1205.961426 C 378.499542 1238.789795 378.499542 1476.281128 378.499542 1484.655273 C 378.499542 1493.032104 384.10202 1506.999268 396.655853 1506.999268 C 405.202148 1506.999268 426.257874 1506.999268 438.930054 1506.999268 C 444.914459 1506.999268 449.06189 1506.999268 449.06189 1506.999268 C 461.73407 1506.999268 482.780365 1506.999268 491.328003 1506.999268 C 503.891266 1506.999268 509.500488 1493.030762 509.500488 1484.655273 C 509.500488 1476.279785 509.500488 1238.78833 509.500488 1205.961426 C 509.499115 1173.125244 466.155792 1145.171875 466.155792 1122.117798 Z M 431.382965 1159.445801 C 428.579041 1163.274414 425.445618 1168.102295 422.040558 1173.672607 C 418.595154 1179.257568 415.329956 1185.766479 412.009583 1192.828125 C 410.74411 1196.4375 409.446381 1200.219238 408.361115 1204.007568 C 408.322113 1208.023193 407.048584 1210.984375 407.603973 1216.023438 C 407.940186 1225.367188 408.307343 1235.195068 408.681183 1245.367188 C 409.353607 1265.718262 409.478638 1287.438354 409.650787 1309.140991 C 409.603699 1352.561035 408.291168 1395.999756 406.260529 1428.561768 C 405.370239 1444.843384 403.90979 1458.404541 403.221222 1467.90564 C 402.378021 1477.405396 401.674713 1482.842407 401.674713 1482.842407 C 401.674713 1482.842407 400.96463 1477.405396 400.120087 1467.90564 C 399.432892 1458.405884 397.9711 1444.844727 397.080811 1428.561768 C 395.050171 1395.999756 393.736267 1352.561035 393.690552 1309.140991 C 393.846558 1287.437012 393.971619 1265.718262 394.658813 1245.367188 C 395.033997 1235.196411 395.401154 1225.367188 395.737366 1216.023438 C 395.573273 1211.687744 397.205902 1205.797363 398.136505 1201.109375 C 399.941223 1196.695801 401.940979 1192.60083 403.8479 1188.742432 C 406.169067 1185.194824 408.3638 1181.796631 410.472473 1178.570313 C 412.871613 1175.625244 415.144348 1172.844238 417.269135 1170.202881 C 421.690918 1165.108765 425.620453 1160.803955 429.051056 1157.444702 C 435.831604 1150.664063 440.183411 1147.335693 440.183411 1147.335693 C 440.183411 1147.335693 436.789124 1151.671387 431.382965 1159.445801 Z"/>
                    </svg>
                    <svg class="bottle-fill"  style="clip-path: polygon(0% {{ volumes[5] }}%, 100% {{ volumes[5] }}%, 100% 100%, 0% 100%)" viewBox="200 400 380.722 380.721" width='385px' x="200" y="-375">
                        <path fill="#DC2B20" stroke="none" d="M 466.155792 1122.117798 C 466.155792 1099.078369 466.155792 995.000671 466.155792 995.000671 L 449.045746 995.000671 L 438.91391 995.000671 L 421.81192 995.000671 C 421.81192 995.000671 421.81192 1099.078369 421.81192 1122.117798 C 421.81192 1145.157104 378.499542 1173.125244 378.499542 1205.961426 C 378.499542 1238.789795 378.499542 1476.281128 378.499542 1484.655273 C 378.499542 1493.032104 384.10202 1506.999268 396.655853 1506.999268 C 405.202148 1506.999268 426.257874 1506.999268 438.930054 1506.999268 C 444.914459 1506.999268 449.06189 1506.999268 449.06189 1506.999268 C 461.73407 1506.999268 482.780365 1506.999268 491.328003 1506.999268 C 503.891266 1506.999268 509.500488 1493.030762 509.500488 1484.655273 C 509.500488 1476.279785 509.500488 1238.78833 509.500488 1205.961426 C 509.499115 1173.125244 466.155792 1145.171875 466.155792 1122.117798 Z M 431.382965 1159.445801 C 428.579041 1163.274414 425.445618 1168.102295 422.040558 1173.672607 C 418.595154 1179.257568 415.329956 1185.766479 412.009583 1192.828125 C 410.74411 1196.4375 409.446381 1200.219238 408.361115 1204.007568 C 408.322113 1208.023193 407.048584 1210.984375 407.603973 1216.023438 C 407.940186 1225.367188 408.307343 1235.195068 408.681183 1245.367188 C 409.353607 1265.718262 409.478638 1287.438354 409.650787 1309.140991 C 409.603699 1352.561035 408.291168 1395.999756 406.260529 1428.561768 C 405.370239 1444.843384 403.90979 1458.404541 403.221222 1467.90564 C 402.378021 1477.405396 401.674713 1482.842407 401.674713 1482.842407 C 401.674713 1482.842407 400.96463 1477.405396 400.120087 1467.90564 C 399.432892 1458.405884 397.9711 1444.844727 397.080811 1428.561768 C 395.050171 1395.999756 393.736267 1352.561035 393.690552 1309.140991 C 393.846558 1287.437012 393.971619 1265.718262 394.658813 1245.367188 C 395.033997 1235.196411 395.401154 1225.367188 395.737366 1216.023438 C 395.573273 1211.687744 397.205902 1205.797363 398.136505 1201.109375 C 399.941223 1196.695801 401.940979 1192.60083 403.8479 1188.742432 C 406.169067 1185.194824 408.3638 1181.796631 410.472473 1178.570313 C 412.871613 1175.625244 415.144348 1172.844238 417.269135 1170.202881 C 421.690918 1165.108765 425.620453 1160.803955 429.051056 1157.444702 C 435.831604 1150.664063 440.183411 1147.335693 440.183411 1147.335693 C 440.183411 1147.335693 436.789124 1151.671387 431.382965 1159.445801 Z"/>
                    </svg>
                </g>
            </a>

            <a class="popup-link" data-popup="popup7" id="popupLink7bottle" data="popup6bottle">
                <g class="bottle" id="bottle7">
                    <svg class="bottle-background" viewBox="400 400 380.722 380.721" width='385px' x="400" y="-375">
                        <path fill="#CECBCB" stroke="none" d="M 648.155823 1122.117798 C 648.155823 1099.078369 648.155823 995.000671 648.155823 995.000671 L 631.045776 995.000671 L 620.91394 995.000671 L 603.811951 995.000671 C 603.811951 995.000671 603.811951 1099.078369 603.811951 1122.117798 C 603.811951 1145.157104 560.499512 1173.125244 560.499512 1205.961426 C 560.499512 1238.789795 560.499512 1476.281128 560.499512 1484.655273 C 560.499512 1493.032104 566.102051 1506.999268 578.655884 1506.999268 C 587.202148 1506.999268 608.257874 1506.999268 620.930054 1506.999268 C 626.91449 1506.999268 631.06189 1506.999268 631.06189 1506.999268 C 643.73407 1506.999268 664.780396 1506.999268 673.328003 1506.999268 C 685.891296 1506.999268 691.500488 1493.030762 691.500488 1484.655273 C 691.500488 1476.279785 691.500488 1238.78833 691.500488 1205.961426 C 691.499146 1173.125244 648.155823 1145.171875 648.155823 1122.117798 Z M 613.382996 1159.445801 C 610.579041 1163.274414 607.445618 1168.102295 604.040527 1173.672607 C 600.595154 1179.257568 597.329956 1185.766479 594.009583 1192.828125 C 592.744141 1196.4375 591.446411 1200.219238 590.361084 1204.007568 C 590.322083 1208.023193 589.048584 1210.984375 589.604004 1216.023438 C 589.940186 1225.367188 590.307312 1235.195068 590.681213 1245.367188 C 591.353577 1265.718262 591.478638 1287.438354 591.650757 1309.140991 C 591.603699 1352.561035 590.291199 1395.999756 588.260498 1428.561768 C 587.370239 1444.843384 585.90979 1458.404541 585.221252 1467.90564 C 584.378052 1477.405396 583.674683 1482.842407 583.674683 1482.842407 C 583.674683 1482.842407 582.964661 1477.405396 582.120117 1467.90564 C 581.432861 1458.405884 579.971069 1444.844727 579.080811 1428.561768 C 577.050171 1395.999756 575.736267 1352.561035 575.690552 1309.140991 C 575.846558 1287.437012 575.971619 1265.718262 576.658813 1245.367188 C 577.033997 1235.196411 577.401184 1225.367188 577.737366 1216.023438 C 577.573303 1211.687744 579.205872 1205.797363 580.136475 1201.109375 C 581.941223 1196.695801 583.940979 1192.60083 585.8479 1188.742432 C 588.169067 1185.194824 590.36377 1181.796631 592.472473 1178.570313 C 594.871643 1175.625244 597.144348 1172.844238 599.269165 1170.202881 C 603.690918 1165.108765 607.620422 1160.803955 611.051086 1157.444702 C 617.831604 1150.664063 622.183411 1147.335693 622.183411 1147.335693 C 622.183411 1147.335693 618.789124 1151.671387 613.382996 1159.445801 Z"/>
                    </svg>
                    <svg class="bottle-fill"  style="clip-path: polygon(0% {{ volumes[6] }}%, 100% {{ volumes[6] }}%, 100% 100%, 0% 100%)" viewBox="400 400 380.722 380.721" width='385px' x="400" y="-375">
                        <path fill="#DC2B20" stroke="none" d="M 648.155823 1122.117798 C 648.155823 1099.078369 648.155823 995.000671 648.155823 995.000671 L 631.045776 995.000671 L 620.91394 995.000671 L 603.811951 995.000671 C 603.811951 995.000671 603.811951 1099.078369 603.811951 1122.117798 C 603.811951 1145.157104 560.499512 1173.125244 560.499512 1205.961426 C 560.499512 1238.789795 560.499512 1476.281128 560.499512 1484.655273 C 560.499512 1493.032104 566.102051 1506.999268 578.655884 1506.999268 C 587.202148 1506.999268 608.257874 1506.999268 620.930054 1506.999268 C 626.91449 1506.999268 631.06189 1506.999268 631.06189 1506.999268 C 643.73407 1506.999268 664.780396 1506.999268 673.328003 1506.999268 C 685.891296 1506.999268 691.500488 1493.030762 691.500488 1484.655273 C 691.500488 1476.279785 691.500488 1238.78833 691.500488 1205.961426 C 691.499146 1173.125244 648.155823 1145.171875 648.155823 1122.117798 Z M 613.382996 1159.445801 C 610.579041 1163.274414 607.445618 1168.102295 604.040527 1173.672607 C 600.595154 1179.257568 597.329956 1185.766479 594.009583 1192.828125 C 592.744141 1196.4375 591.446411 1200.219238 590.361084 1204.007568 C 590.322083 1208.023193 589.048584 1210.984375 589.604004 1216.023438 C 589.940186 1225.367188 590.307312 1235.195068 590.681213 1245.367188 C 591.353577 1265.718262 591.478638 1287.438354 591.650757 1309.140991 C 591.603699 1352.561035 590.291199 1395.999756 588.260498 1428.561768 C 587.370239 1444.843384 585.90979 1458.404541 585.221252 1467.90564 C 584.378052 1477.405396 583.674683 1482.842407 583.674683 1482.842407 C 583.674683 1482.842407 582.964661 1477.405396 582.120117 1467.90564 C 581.432861 1458.405884 579.971069 1444.844727 579.080811 1428.561768 C 577.050171 1395.999756 575.736267 1352.561035 575.690552 1309.140991 C 575.846558 1287.437012 575.971619 1265.718262 576.658813 1245.367188 C 577.033997 1235.196411 577.401184 1225.367188 577.737366 1216.023438 C 577.573303 1211.687744 579.205872 1205.797363 580.136475 1201.109375 C 581.941223 1196.695801 583.940979 1192.60083 585.8479 1188.742432 C 588.169067 1185.194824 590.36377 1181.796631 592.472473 1178.570313 C 594.871643 1175.625244 597.144348 1172.844238 599.269165 1170.202881 C 603.690918 1165.108765 607.620422 1160.803955 611.051086 1157.444702 C 617.831604 1150.664063 622.183411 1147.335693 622.183411 1147.335693 C 622.183411 1147.335693 618.789124 1151.671387 613.382996 1159.445801 Z"/>
                    </svg>
                </g>
            </a>

            <a class="popup-link" data-popup="popup8" id="popupLink0bottle" data="popup7bottle">
                <g class="bottle" id="bottle8">
                    <svg class="bottle-background" viewBox="600 400 380.722 380.721" width='385px' x="600" y="-375">
                        <path fill="#CECBCB" stroke="none" d="M 825.155823 1122.117798 C 825.155823 1099.078369 825.155823 995.000671 825.155823 995.000671 L 808.045776 995.000671 L 797.91394 995.000671 L 780.811951 995.000671 C 780.811951 995.000671 780.811951 1099.078369 780.811951 1122.117798 C 780.811951 1145.157104 737.499512 1173.125244 737.499512 1205.961426 C 737.499512 1238.789795 737.499512 1476.281128 737.499512 1484.655273 C 737.499512 1493.032104 743.102051 1506.999268 755.655884 1506.999268 C 764.202148 1506.999268 785.257874 1506.999268 797.930054 1506.999268 C 803.91449 1506.999268 808.06189 1506.999268 808.06189 1506.999268 C 820.73407 1506.999268 841.780396 1506.999268 850.328003 1506.999268 C 862.891296 1506.999268 868.500488 1493.030762 868.500488 1484.655273 C 868.500488 1476.279785 868.500488 1238.78833 868.500488 1205.961426 C 868.499146 1173.125244 825.155823 1145.171875 825.155823 1122.117798 Z M 790.382996 1159.445801 C 787.579041 1163.274414 784.445618 1168.102295 781.040527 1173.672607 C 777.595154 1179.257568 774.329956 1185.766479 771.009583 1192.828125 C 769.744141 1196.4375 768.446411 1200.219238 767.361084 1204.007568 C 767.322083 1208.023193 766.048584 1210.984375 766.604004 1216.023438 C 766.940186 1225.367188 767.307312 1235.195068 767.681213 1245.367188 C 768.353577 1265.718262 768.478638 1287.438354 768.650757 1309.140991 C 768.603699 1352.561035 767.291199 1395.999756 765.260498 1428.561768 C 764.370239 1444.843384 762.90979 1458.404541 762.221252 1467.90564 C 761.378052 1477.405396 760.674683 1482.842407 760.674683 1482.842407 C 760.674683 1482.842407 759.964661 1477.405396 759.120117 1467.90564 C 758.432861 1458.405884 756.971069 1444.844727 756.080811 1428.561768 C 754.050171 1395.999756 752.736267 1352.561035 752.690552 1309.140991 C 752.846558 1287.437012 752.971619 1265.718262 753.658813 1245.367188 C 754.033997 1235.196411 754.401184 1225.367188 754.737366 1216.023438 C 754.573303 1211.687744 756.205872 1205.797363 757.136475 1201.109375 C 758.941223 1196.695801 760.940979 1192.60083 762.8479 1188.742432 C 765.169067 1185.194824 767.36377 1181.796631 769.472473 1178.570313 C 771.871643 1175.625244 774.144348 1172.844238 776.269165 1170.202881 C 780.690918 1165.108765 784.620422 1160.803955 788.051086 1157.444702 C 794.831604 1150.664063 799.183411 1147.335693 799.183411 1147.335693 C 799.183411 1147.335693 795.789124 1151.671387 790.382996 1159.445801 Z"/>
                    </svg>
                    <svg class="bottle-fill"  style="clip-path: polygon(0% {{ volumes[7] }}%, 100% {{ volumes[7] }}%, 100% 100%, 0% 100%)" viewBox="600 400 380.722 380.721" width='385px' x="600" y="-375">
                        <path fill="#DC2B20" stroke="none" d="M 825.155823 1122.117798 C 825.155823 1099.078369 825.155823 995.000671 825.155823 995.000671 L 808.045776 995.000671 L 797.91394 995.000671 L 780.811951 995.000671 C 780.811951 995.000671 780.811951 1099.078369 780.811951 1122.117798 C 780.811951 1145.157104 737.499512 1173.125244 737.499512 1205.961426 C 737.499512 1238.789795 737.499512 1476.281128 737.499512 1484.655273 C 737.499512 1493.032104 743.102051 1506.999268 755.655884 1506.999268 C 764.202148 1506.999268 785.257874 1506.999268 797.930054 1506.999268 C 803.91449 1506.999268 808.06189 1506.999268 808.06189 1506.999268 C 820.73407 1506.999268 841.780396 1506.999268 850.328003 1506.999268 C 862.891296 1506.999268 868.500488 1493.030762 868.500488 1484.655273 C 868.500488 1476.279785 868.500488 1238.78833 868.500488 1205.961426 C 868.499146 1173.125244 825.155823 1145.171875 825.155823 1122.117798 Z M 790.382996 1159.445801 C 787.579041 1163.274414 784.445618 1168.102295 781.040527 1173.672607 C 777.595154 1179.257568 774.329956 1185.766479 771.009583 1192.828125 C 769.744141 1196.4375 768.446411 1200.219238 767.361084 1204.007568 C 767.322083 1208.023193 766.048584 1210.984375 766.604004 1216.023438 C 766.940186 1225.367188 767.307312 1235.195068 767.681213 1245.367188 C 768.353577 1265.718262 768.478638 1287.438354 768.650757 1309.140991 C 768.603699 1352.561035 767.291199 1395.999756 765.260498 1428.561768 C 764.370239 1444.843384 762.90979 1458.404541 762.221252 1467.90564 C 761.378052 1477.405396 760.674683 1482.842407 760.674683 1482.842407 C 760.674683 1482.842407 759.964661 1477.405396 759.120117 1467.90564 C 758.432861 1458.405884 756.971069 1444.844727 756.080811 1428.561768 C 754.050171 1395.999756 752.736267 1352.561035 752.690552 1309.140991 C 752.846558 1287.437012 752.971619 1265.718262 753.658813 1245.367188 C 754.033997 1235.196411 754.401184 1225.367188 754.737366 1216.023438 C 754.573303 1211.687744 756.205872 1205.797363 757.136475 1201.109375 C 758.941223 1196.695801 760.940979 1192.60083 762.8479 1188.742432 C 765.169067 1185.194824 767.36377 1181.796631 769.472473 1178.570313 C 771.871643 1175.625244 774.144348 1172.844238 776.269165 1170.202881 C 780.690918 1165.108765 784.620422 1160.803955 788.051086 1157.444702 C 794.831604 1150.664063 799.183411 1147.335693 799.183411 1147.335693 C 799.183411 1147.335693 795.789124 1151.671387 790.382996 1159.445801 Z"/>
                    </svg>
                </g>
            </a>
        </g>
    </g>
</svg>